<?xml version="1.0" standalone="no"?>
<!DOCTYPE svg PUBLIC "-//W3C//DTD SVG 20010904//EN"
 "http://www.w3.org/TR/2001/REC-SVG-20010904/DTD/svg10.dtd">
<svg version="1.0" xmlns="http://www.w3.org/2000/svg"
 width="112.000000pt" height="112.000000pt" viewBox="0 0 112.000000 112.000000"
 preserveAspectRatio="xMidYMid meet">
<metadata>
Created by potrace 1.14, written by Peter Selinger 2001-2017
</metadata>
<g transform="translate(0.000000,112.000000) scale(0.100000,-0.100000)"
fill="#000000" stroke="none">
<path d="M130 560 l0 -560 358 2 357 3 -3 60 c-3 55 0 67 46 155 56 106 87
222 97 360 6 82 5 89 -33 190 -22 58 -43 126 -46 152 -8 55 -20 66 -45 44 -28
-25 -45 -20 -106 32 -37 32 -88 62 -146 85 l-90 37 -195 0 -194 0 0 -560z"/>
</g>
</svg>
